<svg id="Layer_1" xmlns="http://www.w3.org/2000/svg" width="300" height="400" viewBox="0 0 300 400"><path d="M102.68 291.324s-14.177 8.245 10.09 11.035c29.4 3.353 44.427 2.872 76.826-3.26 0 0 8.518 5.34 20.414 9.967-72.63 31.128-164.376-1.803-107.33-17.743M93.806 250.704s-15.902 11.77 8.384 14.283c31.406 3.24 56.208 3.505 99.125-4.76 0 0 5.936 6.02 15.27 9.31-87.814 25.678-185.623 2.025-122.78-18.833" fill="#5382a1"/><path d="M168.625 181.8c17.896 20.603-4.702 39.144-4.702 39.144s45.44-23.458 24.572-52.833c-19.49-27.393-34.438-41.004 46.48-87.933 0 0-127.014 31.722-66.35 101.622" fill="#e76f00"/><path d="M264.684 321.37s10.492 8.644-11.555 15.332c-41.924 12.7-174.49 16.535-211.315.506-13.238-5.76 11.587-13.75 19.396-15.428 8.145-1.766 12.8-1.437 12.8-1.437-14.723-10.37-95.158 20.364-40.858 29.166 148.084 24.014 269.943-10.815 231.532-28.14M109.5 208.617s-67.432 16.016-23.88 21.832c18.39 2.46 55.047 1.904 89.193-.957 27.906-2.354 55.927-7.36 55.927-7.36s-9.84 4.215-16.96 9.076c-68.474 18.008-200.755 9.63-162.673-8.79 32.206-15.57 58.392-13.803 58.392-13.803M230.462 276.23c69.608-36.17 37.424-70.93 14.96-66.247-5.506 1.146-7.96 2.14-7.96 2.14s2.043-3.203 5.947-4.59c44.44-15.623 78.618 46.082-14.347 70.52 0 .002 1.077-.96 1.4-1.822" fill="#5382a1"/><path d="M188.495 4.4s38.55 38.562-36.563 97.86c-60.233 47.57-13.735 74.69-.025 105.68-35.16-31.723-60.96-59.648-43.65-85.638 25.406-38.15 95.792-56.648 80.238-117.903" fill="#e76f00"/><path d="M116.34 374.246c66.814 4.277 169.416-2.373 171.846-33.988 0 0-4.67 11.985-55.22 21.503-57.027 10.733-127.363 9.48-169.08 2.602 0 0 8.54 7.068 52.453 9.884" fill="#5382a1"/></svg>